<svg width="50" height="50" viewBox="0 0 50 50" fill="none" xmlns="http://www.w3.org/2000/svg">
<path d="M45.3125 35.9375H32.9766C34.4461 33.7617 40.625 24.3703 40.625 20.3125C40.625 18.0333 39.7196 15.8474 38.1079 14.2358C36.4963 12.6242 34.3105 11.7188 32.0312 11.7188C29.752 11.7188 27.5662 12.6242 25.9545 14.2358C24.3429 15.8474 23.4375 18.0333 23.4375 20.3125C23.4375 24.3703 29.6164 33.7617 31.0859 35.9375H22.6562V26.5625C22.6562 26.4412 22.628 26.3216 22.5738 26.2131C22.5195 26.1046 22.4408 26.0103 22.3438 25.9375L16.0938 21.25C15.9585 21.1486 15.794 21.0938 15.625 21.0938C15.456 21.0938 15.2915 21.1486 15.1562 21.25L8.90625 25.9375C8.80922 26.0103 8.73047 26.1046 8.67623 26.2131C8.62199 26.3216 8.59375 26.4412 8.59375 26.5625V35.9375H1.5625C1.3553 35.9375 1.15659 36.0198 1.01007 36.1663C0.86356 36.3128 0.78125 36.5115 0.78125 36.7188C0.78125 36.926 0.86356 37.1247 1.01007 37.2712C1.15659 37.4177 1.3553 37.5 1.5625 37.5H45.3125C45.5197 37.5 45.7184 37.4177 45.8649 37.2712C46.0114 37.1247 46.0938 36.926 46.0938 36.7188C46.0938 36.5115 46.0114 36.3128 45.8649 36.1663C45.7184 36.0198 45.5197 35.9375 45.3125 35.9375ZM32.0312 13.2812C33.8954 13.2833 35.6826 14.0248 37.0008 15.3429C38.319 16.6611 39.0604 18.4483 39.0625 20.3125C39.0625 23.3547 34.4625 30.8914 32.0312 34.5445C29.6 30.8922 25 23.3594 25 20.3125C25.0021 18.4483 25.7435 16.6611 27.0617 15.3429C28.3799 14.0248 30.1671 13.2833 32.0312 13.2812ZM14.0625 35.9375V31.25H17.1875V35.9375H14.0625ZM18.75 35.9375V30.4688C18.75 30.2615 18.6677 30.0628 18.5212 29.9163C18.3747 29.7698 18.176 29.6875 17.9688 29.6875H13.2812C13.074 29.6875 12.8753 29.7698 12.7288 29.9163C12.5823 30.0628 12.5 30.2615 12.5 30.4688V35.9375H10.1562V26.9531L15.625 22.8516L21.0938 26.9531V35.9375H18.75Z" fill="#4F5485"/>
<path d="M48.4375 35.9375H47.6562C47.449 35.9375 47.2503 36.0198 47.1038 36.1663C46.9573 36.3128 46.875 36.5115 46.875 36.7188C46.875 36.926 46.9573 37.1247 47.1038 37.2712C47.2503 37.4177 47.449 37.5 47.6562 37.5H48.4375C48.6447 37.5 48.8434 37.4177 48.9899 37.2712C49.1364 37.1247 49.2188 36.926 49.2188 36.7188C49.2188 36.5115 49.1364 36.3128 48.9899 36.1663C48.8434 36.0198 48.6447 35.9375 48.4375 35.9375Z" fill="#4F5485"/>
<path d="M35.9375 20.3125C35.9375 19.5399 35.7084 18.7847 35.2792 18.1423C34.85 17.4999 34.2399 16.9993 33.5261 16.7036C32.8124 16.4079 32.0269 16.3306 31.2692 16.4813C30.5114 16.632 29.8154 17.0041 29.2691 17.5504C28.7228 18.0967 28.3508 18.7927 28.2001 19.5504C28.0493 20.3082 28.1267 21.0936 28.4223 21.8074C28.718 22.5211 29.2187 23.1312 29.8611 23.5604C30.5034 23.9896 31.2587 24.2187 32.0313 24.2187C33.0669 24.2175 34.0597 23.8056 34.792 23.0733C35.5243 22.341 35.9363 21.3481 35.9375 20.3125ZM29.6875 20.3125C29.6875 19.8489 29.825 19.3958 30.0825 19.0104C30.34 18.625 30.7061 18.3245 31.1343 18.1472C31.5626 17.9698 32.0339 17.9233 32.4885 18.0138C32.9432 18.1042 33.3608 18.3274 33.6885 18.6552C34.0163 18.983 34.2396 19.4006 34.33 19.8553C34.4204 20.3099 34.374 20.7811 34.1966 21.2094C34.0192 21.6377 33.7188 22.0037 33.3334 22.2613C32.948 22.5188 32.4948 22.6562 32.0313 22.6562C31.4097 22.6562 30.8135 22.4093 30.374 21.9698C29.9344 21.5302 29.6875 20.9341 29.6875 20.3125Z" fill="#4F5485"/>
</svg>
