<svg width="512" height="480" viewBox="0 0 512 480" fill="none" xmlns="http://www.w3.org/2000/svg">
<path d="M426 479.983H86C60.636 479.983 40 459.348 40 433.983V191.963C40 183.127 47.163 175.963 56 175.963C64.837 175.963 72 183.127 72 191.963V433.983C72 441.703 78.28 447.983 86 447.983H426C433.72 447.983 440 441.703 440 433.983V191.963C440 183.127 447.163 175.963 456 175.963C464.837 175.963 472 183.127 472 191.963V433.983C472 459.347 451.365 479.983 426 479.983Z" fill="#FBB224"/>
<path d="M496 247.958C491.905 247.958 487.811 246.396 484.687 243.271L285.698 44.2841C269.323 27.9081 242.678 27.9081 226.302 44.2841L27.314 243.272C21.066 249.521 10.935 249.521 4.68699 243.272C-1.56201 237.024 -1.56201 226.893 4.68699 220.645L203.675 21.6561C232.527 -7.19591 279.474 -7.19591 308.325 21.6561L507.313 220.644C513.562 226.893 513.562 237.023 507.313 243.271C504.19 246.396 500.095 247.958 496 247.958V247.958Z" fill="#FBB224"/>
<path d="M320 479.983H192C183.163 479.983 176 472.819 176 463.983V321.983C176 294.413 198.43 271.983 226 271.983H286C313.57 271.983 336 294.413 336 321.983V463.983C336 472.819 328.837 479.983 320 479.983ZM208 447.983H304V321.983C304 312.058 295.925 303.983 286 303.983H226C216.075 303.983 208 312.058 208 321.983V447.983Z" fill="#FBB224"/>
</svg>
