<svg width="30" height="30" viewBox="0 0 30 30" fill="none" xmlns="http://www.w3.org/2000/svg">
<path d="M12.1102 15.0063L23.3331 3.78293C23.6421 3.47463 23.8121 3.06244 23.8121 2.62293C23.8121 2.18317 23.6421 1.77122 23.3331 1.46244L22.3497 0.479512C22.0412 0.170244 21.6287 0 21.1892 0C20.7497 0 20.3377 0.170244 20.029 0.479512L6.66629 13.842C6.35629 14.1517 6.18653 14.5656 6.18775 15.0056C6.18653 15.4476 6.35604 15.861 6.66629 16.171L20.0165 29.5205C20.3253 29.8298 20.7373 30 21.177 30C21.6165 30 22.0285 29.8298 22.3375 29.5205L23.3207 28.5376C23.9604 27.8978 23.9604 26.8563 23.3207 26.2168L12.1102 15.0063Z" fill="#FBB224"/>
</svg>
