<svg width="15" height="15" viewBox="0 0 15 15" fill="none" xmlns="http://www.w3.org/2000/svg">
<path d="M13.929 2.14286H10.179V1.60714C10.179 0.719541 9.45947 0 8.57187 0H6.42901C5.54141 0 4.82187 0.719541 4.82187 1.60714V2.14286H1.07186C0.77598 2.14286 0.536133 2.38271 0.536133 2.67859C0.536133 2.97446 0.776011 3.21428 1.07186 3.21428H1.65416L2.679 14.513C2.70427 14.7897 2.93689 15.0011 3.21472 15H11.7862C12.064 15.0011 12.2966 14.7897 12.3219 14.513L13.3467 3.21428H13.929C14.2249 3.21428 14.4647 2.97443 14.4647 2.67856C14.4647 2.38268 14.2249 2.14286 13.929 2.14286ZM5.89328 1.60714C5.89328 1.31126 6.13313 1.07142 6.42901 1.07142H8.57187C8.86775 1.07142 9.1076 1.31126 9.1076 1.60714V2.14286H5.89331V1.60714H5.89328ZM11.297 13.9285H3.70383L2.73258 3.21428H5.35759H12.271L11.297 13.9285Z" fill="#D7654C"/>
<path d="M5.89285 12.2854C5.89278 12.2847 5.89275 12.2839 5.89269 12.2832L5.35696 4.78323C5.33597 4.48735 5.07907 4.26455 4.78323 4.28555C4.48735 4.30655 4.26455 4.56344 4.28555 4.85929L4.82127 12.3593C4.84127 12.6402 5.07537 12.8577 5.357 12.857H5.39557C5.69073 12.8365 5.91337 12.5806 5.89285 12.2854Z" fill="#D7654C"/>
<path d="M7.49959 4.28613C7.20371 4.28613 6.96387 4.52598 6.96387 4.82186V12.3218C6.96387 12.6177 7.20371 12.8576 7.49959 12.8576C7.79547 12.8576 8.03532 12.6177 8.03532 12.3218V4.82186C8.03532 4.52598 7.79547 4.28613 7.49959 4.28613Z" fill="#D7654C"/>
<path d="M10.2164 4.28555C9.92051 4.26455 9.66366 4.48735 9.64266 4.78323L9.10693 12.2832C9.08524 12.5783 9.30685 12.8351 9.60191 12.8568C9.60282 12.8568 9.6037 12.8569 9.60461 12.857H9.64266C9.92428 12.8577 10.1584 12.6402 10.1784 12.3593L10.7141 4.85929C10.7351 4.56344 10.5123 4.30658 10.2164 4.28555Z" fill="#D7654C"/>
</svg>
