<svg width="512" height="502" viewBox="0 0 512 502" fill="none" xmlns="http://www.w3.org/2000/svg">
<path d="M255.968 0.328125C114.624 0.328125 0 115.4 0 257.352C0 370.888 73.344 467.208 175.104 501.224C187.904 503.592 192.576 495.656 192.576 488.84C192.576 482.728 192.352 466.568 192.224 445.128C121.024 460.648 105.984 410.664 105.984 410.664C94.368 380.968 77.568 373.064 77.568 373.064C54.304 357.128 79.296 357.448 79.296 357.448C104.992 359.272 118.496 383.944 118.496 383.944C141.344 423.208 178.432 411.88 193.024 405.288C195.328 388.68 201.952 377.352 209.28 370.92C152.448 364.424 92.672 342.376 92.672 243.912C92.672 215.848 102.656 192.904 119.04 174.92C116.384 168.424 107.616 142.28 121.536 106.92C121.536 106.92 143.04 100.008 191.936 133.256C212.352 127.56 234.24 124.712 256.032 124.616C277.76 124.744 299.68 127.56 320.128 133.288C368.992 100.04 390.464 106.952 390.464 106.952C404.416 142.344 395.648 168.456 393.024 174.952C409.44 192.936 419.328 215.88 419.328 243.944C419.328 342.664 359.488 364.392 302.464 370.76C311.648 378.696 319.84 394.376 319.84 418.344C319.84 452.712 319.52 480.424 319.52 488.84C319.52 495.72 324.128 503.72 337.12 501.192C438.72 467.144 512 370.856 512 257.352C512 115.4 397.376 0.328125 255.968 0.328125Z" fill="#FFCD69"/>
</svg>
