<svg height="512" viewBox="0 0 512 512" width="512" xmlns="http://www.w3.org/2000/svg"><g id="Filled_outline" data-name="Filled outline"><path d="m128 144a72 72 0 0 0 -72 72v6.863a273.138 273.138 0 0 0 80 193.137h240a273.138 273.138 0 0 0 80-193.137v-6.863a72 72 0 0 0 -72-72z" fill="#f6aeae"/><path d="m336 256a64 64 0 0 1 -64-64 128 128 0 0 1 51.2-102.4l12.8-9.6 12.8 9.6a128 128 0 0 1 51.2 102.4 64 64 0 0 1 -64 64z" fill="#91563a"/><path d="m212 112a108 108 0 0 0 -108 108 36 36 0 0 0 36 36 36 36 0 0 0 36-36 36 36 0 0 1 36-36 36 36 0 0 0 36-36 36 36 0 0 0 -36-36z" fill="#fdd560"/><path d="m232 296a24 24 0 0 1 -24-24v-32a24 24 0 0 1 24-24l24 24v32a24 24 0 0 1 -24 24z" fill="#f9a40f"/><path d="m456 216a72 72 0 0 1 -72 72h-256a72 72 0 0 1 -72-72v6.863a273.138 273.138 0 0 0 80 193.137h240a273.138 273.138 0 0 0 80-193.137z" fill="#dfdfdd"/><path d="m477.324 402.874a35.983 35.983 0 0 0 -51.549 0 35.986 35.986 0 0 1 -51.55 0 35.983 35.983 0 0 0 -51.549 0 37.614 37.614 0 0 0 0 52.5 107.952 107.952 0 0 0 154.648 0 37.614 37.614 0 0 0 0-52.5z" fill="#fdd560"/><path d="m104 448a24 24 0 0 1 -24 24h-32a24 24 0 0 1 -24-24l24-24h32a24 24 0 0 1 24 24z" fill="#ffb431"/><path d="m280.971 80.569a24 24 0 0 1 -33.942 0l-13.254-13.255a32 32 0 0 1 -9.375-22.628v-20.686h20.686a32 32 0 0 1 22.628 9.373l13.255 13.254a24 24 0 0 1 .002 33.942z" fill="#ffb431"/><rect fill="#fdd560" height="64" rx="20" transform="matrix(0 1 -1 0 636 300)" width="40" x="148" y="436"/><rect fill="#fdd560" height="64" rx="20" transform="matrix(.707 .707 -.707 .707 96.603 -96.25)" width="40" x="144.485" y="36.485"/><path d="m117.456 152.858a115.368 115.368 0 0 0 -21.456 67.142 44 44 0 0 0 88 0 28.032 28.032 0 0 1 28-28 44.054 44.054 0 0 0 43.81-40h14.277a135.238 135.238 0 0 0 -6.087 40 72 72 0 0 0 144 0 136.653 136.653 0 0 0 -54.4-108.8l-12.8-9.6a8 8 0 0 0 -9.6 0l-12.8 9.6a136.221 136.221 0 0 0 -42.239 52.8h-21.838a44.07 44.07 0 0 0 -42.323-32 115.589 115.589 0 0 0 -79.92 32h-4.08a80.184 80.184 0 0 0 -50.287 17.781l10.064 12.438a63.17 63.17 0 0 1 29.679-13.361zm210.544-56.858 8-6 8 6a120.574 120.574 0 0 1 48 96 56 56 0 0 1 -112 0 120.574 120.574 0 0 1 48-96zm-116 24a28 28 0 0 1 0 56 44.049 44.049 0 0 0 -44 44 28 28 0 0 1 -56 0 100.113 100.113 0 0 1 100-100z"/><path d="m328 112h16v120h-16z"/><path d="m296 152h16v56h-16z"/><path d="m360 152h16v56h-16z"/><path d="m483.032 397.27a43.982 43.982 0 0 0 -62.966 0 27.946 27.946 0 0 1 -20.066 8.478 28.277 28.277 0 0 1 -3.43-.217 281.112 281.112 0 0 0 67.43-182.671v-6.86a80.091 80.091 0 0 0 -43.312-71.106l-7.347 14.212a64.01 64.01 0 0 1 -29.341 120.894h-121.013a31.94 31.94 0 0 0 1.013-8v-32a8 8 0 0 0 -2.343-5.657l-24-24a8 8 0 0 0 -5.657-2.343 32.036 32.036 0 0 0 -32 32v32a31.94 31.94 0 0 0 1.013 8h-73.013a64.072 64.072 0 0 1 -64-64 63.274 63.274 0 0 1 14.219-40.223l-12.438-10.064a80.186 80.186 0 0 0 -17.781 50.287v6.86a281.148 281.148 0 0 0 82.343 198.8 8 8 0 0 0 5.657 2.34h152v-16h-148.658a265.46 265.46 0 0 1 -71.342-139.173 79.814 79.814 0 0 0 60 27.173h82.868a31.91 31.91 0 0 0 42.264 0h130.868a79.809 79.809 0 0 0 60-27.171 265.272 265.272 0 0 1 -62.636 129.792c-.488-.434-.968-.88-1.431-1.351a43.982 43.982 0 0 0 -62.966 0 45.694 45.694 0 0 0 0 63.712 115.622 115.622 0 0 0 143.189 18.17l-8.314-13.67c-39.829 24.22-90.6 17.761-123.458-15.709a29.617 29.617 0 0 1 0-41.294 27.983 27.983 0 0 1 40.132 0 43.984 43.984 0 0 0 62.966 0 27.983 27.983 0 0 1 40.132 0 29.617 29.617 0 0 1 0 41.294 103.569 103.569 0 0 1 -8.813 8l10.05 12.45a119.472 119.472 0 0 0 10.18-9.243 45.694 45.694 0 0 0 .001-63.71zm-235.032-125.27a16 16 0 0 1 -32 0v-32a16.027 16.027 0 0 1 12.974-15.713l19.026 19.026z"/><path d="m80 416h-32a8 8 0 0 0 -5.657 2.343l-24 24a8 8 0 0 0 -2.343 5.657 32.036 32.036 0 0 0 32 32h32a32 32 0 0 0 0-64zm0 48h-32a16.027 16.027 0 0 1 -15.713-12.974l19.026-19.026h28.687a16 16 0 0 1 0 32z"/><path d="m180 440h-24a28 28 0 0 0 0 56h24a28 28 0 0 0 0-56zm0 40h-24a12 12 0 0 1 0-24h24a12 12 0 0 1 0 24z"/><path d="m241.372 86.225a32 32 0 1 0 45.255-45.255l-13.254-13.253a39.736 39.736 0 0 0 -28.285-11.717h-20.688a8 8 0 0 0 -8 8v20.687a39.736 39.736 0 0 0 11.716 28.284zm-8.972-54.225h12.686a23.84 23.84 0 0 1 16.971 7.03l13.254 13.253a16 16 0 0 1 0 22.628 16 16 0 0 1 -22.627 0l-13.253-13.255a23.838 23.838 0 0 1 -7.031-16.969z"/><path d="m156 104.957a27.916 27.916 0 0 0 19.8-8.187l16.97-16.97a28 28 0 1 0 -39.6-39.6l-16.97 16.971a27.987 27.987 0 0 0 19.8 47.786zm-8.485-36.472 16.97-16.97a12 12 0 1 1 16.971 16.97l-16.971 16.97a12 12 0 0 1 -16.97-16.97z"/></g></svg>