<svg width="30" height="30" viewBox="0 0 30 30" fill="none" xmlns="http://www.w3.org/2000/svg">
<g clip-path="url(#clip0)">
<path d="M27.8173 22.546C26.5839 22.221 24.9177 21.7462 22.7827 20.9243C22.7556 20.7564 22.6561 20.6016 22.4974 20.51L20.4678 19.3382C20.1883 19.1768 19.8295 19.2719 19.6674 19.5527L19.6459 19.5897C19.2912 19.4238 18.9377 19.2531 18.5878 19.0789L18.6526 18.9667C18.8144 18.6864 18.7184 18.3282 18.4381 18.1663L16.4085 16.9945C16.1284 16.8329 15.7699 16.9288 15.6081 17.2091L15.499 17.3981C14.7658 16.9637 14.0393 16.5071 13.333 16.036C13.0743 15.8635 12.7258 15.9231 12.5392 16.1719L9.72674 19.9218C9.39669 20.362 8.87101 20.6248 8.32061 20.6248H6.44569C5.47648 20.6248 4.68796 19.8363 4.68796 18.8671C4.68796 18.5435 4.42565 18.2812 4.10205 18.2812H1.7584C1.46679 18.2812 1.2196 18.4956 1.17841 18.7842C-0.0677072 27.5216 0.000668662 26.9911 0.000668662 27.0698C0.000668662 28.6852 1.32957 29.9994 2.96304 29.9994H20.3681C23.3892 29.9994 26.3963 29.2645 29.064 27.8743C29.6409 27.574 29.9993 26.9748 29.9993 26.3105V25.3777C29.9993 24.0763 29.1323 22.8923 27.8173 22.546ZM20.3893 20.646L21.4042 21.2319L19.9391 23.769C19.7784 24.0477 19.421 24.1461 19.1386 23.9831C18.8582 23.8214 18.7626 23.4635 18.9244 23.183L20.3893 20.646ZM17.3449 18.8882C17.0372 19.4211 15.5838 21.9383 15.2941 22.4402C15.1325 22.7203 14.7745 22.8165 14.4936 22.6543C14.214 22.493 14.1179 22.1339 14.2794 21.8541C14.597 21.3041 15.891 19.063 16.3302 18.3024L17.3449 18.8882ZM2.26656 19.453H3.57502C3.84723 20.7885 5.03101 21.7966 6.44575 21.7966H8.32067C9.23803 21.7966 10.1142 21.3586 10.6643 20.6248L13.1459 17.316C13.726 17.6935 14.3175 18.0602 14.9131 18.4129L13.2645 21.2684C12.78 22.1082 13.0688 23.1852 13.9079 23.6693C14.7483 24.1545 15.823 23.8685 16.309 23.026L18.001 20.0957C18.3504 20.2703 18.7035 20.4415 19.058 20.6083L17.9096 22.5973C17.4242 23.4387 17.7114 24.5127 18.5533 24.9983C19.3891 25.4804 20.4678 25.198 20.9541 24.3548L22.314 21.9998C24.5247 22.8534 26.2464 23.3439 27.5189 23.6792C27.8622 23.7696 28.1636 23.9584 28.3911 24.218C25.9752 25.7021 23.2138 26.4839 20.3688 26.4839H2.96309C2.31162 26.4839 1.70801 26.1234 1.39461 25.5571L2.26656 19.453ZM28.8275 26.3105C28.8275 26.5328 28.708 26.7386 28.5227 26.835C26.0213 28.1386 23.2015 28.8276 20.3681 28.8276H2.96309C1.9722 28.8276 1.19323 28.0757 1.17296 27.1086L1.18046 27.0561C1.68622 27.4368 2.3101 27.6558 2.96309 27.6558H20.3688C23.3617 27.6558 26.2682 26.8516 28.8262 25.324C28.8267 25.3419 28.8276 25.3598 28.8276 25.3778V26.3105H28.8275Z" fill="black"/>
<path d="M18.5156 14.0627C18.8392 14.0627 19.1016 13.8004 19.1016 13.4768C19.1016 13.1532 18.8392 12.8909 18.5156 12.8909C18.192 12.8909 17.9297 13.1532 17.9297 13.4768C17.9297 13.8004 18.192 14.0627 18.5156 14.0627Z" fill="black"/>
<path d="M28.8219 2.84746C28.7806 2.55884 28.5334 2.34445 28.2419 2.34445H25.8983C25.5747 2.34445 25.3123 2.60677 25.3123 2.93037C25.3123 3.89958 24.5238 4.6881 23.5546 4.6881H21.6797C21.1292 4.6881 20.6036 4.42532 20.2735 3.98501L17.4611 0.235174C17.2745 -0.0136622 16.926 -0.0733666 16.6673 0.0993015C15.961 0.570433 15.2345 1.02697 14.5013 1.46137L14.3922 1.27235C14.2302 0.991703 13.8714 0.896199 13.5918 1.05779L11.5622 2.22962C11.2819 2.39139 11.186 2.74973 11.3477 3.02997L11.4125 3.14229C11.0639 3.31595 10.7104 3.48651 10.3544 3.65303L10.333 3.61594C10.171 3.33535 9.81223 3.23996 9.53258 3.40144L7.50298 4.57326C7.3442 4.6649 7.24477 4.81969 7.21764 4.98762C5.08258 5.80953 3.41643 6.28424 2.18314 6.6093C0.878671 6.95276 0.000976562 8.12828 0.000976562 9.44101V10.3738C0.000976562 11.0381 0.359378 11.6373 0.935974 11.9375C3.60392 13.3278 6.61082 14.0627 9.6316 14.0627H15.8792C16.2028 14.0627 16.4651 13.8004 16.4651 13.4768C16.4651 13.1532 16.2028 12.8909 15.8792 12.8909H9.6316C6.7986 12.8909 3.97896 12.2018 1.4773 10.8982C1.29232 10.8019 1.1728 10.5961 1.1728 10.3738C1.1728 10.3738 1.17368 9.40515 1.17421 9.38722C3.73212 10.9149 6.63865 11.719 9.6316 11.719H27.0373C27.6903 11.719 28.3141 11.5 28.8199 11.1193L28.8274 11.1719C28.807 12.1389 28.028 12.8909 27.0373 12.8909H21.1524C20.8288 12.8909 20.5665 13.1532 20.5665 13.4768C20.5665 13.8004 20.8288 14.0627 21.1524 14.0627H27.0372C28.6707 14.0627 29.9996 12.7485 29.9996 11.1331C29.9996 11.0544 30.0687 11.59 28.8219 2.84746ZM13.6701 2.36561C14.1105 3.12829 15.4028 5.36641 15.7208 5.91711C15.8823 6.19717 15.7863 6.55622 15.5065 6.71764C15.2263 6.87947 14.8681 6.7839 14.7061 6.50319C14.5387 6.21334 12.9394 3.44333 12.6554 2.95146L13.6701 2.36561ZM9.61103 4.70919L11.0758 7.24595C11.2372 7.5259 11.1411 7.88501 10.8616 8.04637C10.5815 8.2079 10.2225 8.11187 10.061 7.83204L8.59612 5.29516L9.61103 4.70919ZM27.0372 10.5472H9.63154C6.78647 10.5472 4.02501 9.76531 1.60901 8.28114C1.8364 8.02182 2.13791 7.83286 2.48155 7.7424C3.75391 7.40702 5.47555 6.91661 7.68626 6.06294L9.04604 8.41778C9.53182 9.25996 10.6058 9.54659 11.4472 9.06128C12.2862 8.57685 12.5749 7.49983 12.0906 6.66022L10.9425 4.67152C11.2981 4.50424 11.6512 4.3331 11.9995 4.15902L13.6912 7.08893C14.1762 7.92977 15.2501 8.21886 16.0922 7.73255C16.9315 7.24841 17.2203 6.17133 16.7357 5.33137L15.0872 2.47617C15.6828 2.12351 16.2742 1.75679 16.8544 1.37922L19.3359 4.68798C19.8861 5.42178 20.7623 5.85986 21.6796 5.85986H23.5545C24.9693 5.85986 26.153 4.85174 26.4253 3.51622H27.7337L28.6057 9.6203C28.2923 10.1866 27.6887 10.5472 27.0372 10.5472Z" fill="black"/>
</g>
<defs>
<clipPath id="clip0">
<rect width="30" height="30" fill="white"/>
</clipPath>
</defs>
</svg>
