<?xml version="1.0" encoding="UTF-8"?>
<svg xmlns="http://www.w3.org/2000/svg" viewBox="0 0 512 512" width="512" height="512"><g id="Outline"><path d="M117.456,152.858A115.368,115.368,0,0,0,96,220a44,44,0,0,0,88,0,28.032,28.032,0,0,1,28-28,44.054,44.054,0,0,0,43.81-40h14.277A135.238,135.238,0,0,0,264,192a72,72,0,0,0,144,0A136.653,136.653,0,0,0,353.6,83.2l-12.8-9.6a8,8,0,0,0-9.6,0l-12.8,9.6A136.221,136.221,0,0,0,276.161,136H254.323A44.07,44.07,0,0,0,212,104a115.589,115.589,0,0,0-79.92,32H128a80.184,80.184,0,0,0-50.287,17.781l10.064,12.438A63.17,63.17,0,0,1,117.456,152.858ZM328,96l8-6,8,6a120.574,120.574,0,0,1,48,96,56,56,0,0,1-112,0A120.574,120.574,0,0,1,328,96ZM212,120a28,28,0,0,1,0,56,44.049,44.049,0,0,0-44,44,28,28,0,0,1-56,0A100.113,100.113,0,0,1,212,120Z"/><rect x="328" y="112" width="16" height="120"/><rect x="296" y="152" width="16" height="56"/><rect x="360" y="152" width="16" height="56"/><path d="M483.032,397.27a43.982,43.982,0,0,0-62.966,0A27.946,27.946,0,0,1,400,405.748a28.277,28.277,0,0,1-3.43-.217A281.112,281.112,0,0,0,464,222.86V216a80.091,80.091,0,0,0-43.312-71.106l-7.347,14.212A64.01,64.01,0,0,1,384,280H262.987A31.94,31.94,0,0,0,264,272V240a8,8,0,0,0-2.343-5.657l-24-24A8,8,0,0,0,232,208a32.036,32.036,0,0,0-32,32v32a31.94,31.94,0,0,0,1.013,8H128a64.072,64.072,0,0,1-64-64,63.274,63.274,0,0,1,14.219-40.223L65.781,165.713A80.186,80.186,0,0,0,48,216v6.86a281.148,281.148,0,0,0,82.343,198.8A8,8,0,0,0,136,424H288V408H139.342A265.46,265.46,0,0,1,68,268.827,79.814,79.814,0,0,0,128,296h82.868a31.91,31.91,0,0,0,42.264,0H384a79.809,79.809,0,0,0,60-27.171,265.272,265.272,0,0,1-62.636,129.792c-.488-.434-.968-.88-1.431-1.351a43.982,43.982,0,0,0-62.966,0,45.694,45.694,0,0,0,0,63.712,115.622,115.622,0,0,0,143.189,18.17l-8.314-13.67c-39.829,24.22-90.6,17.761-123.458-15.709a29.617,29.617,0,0,1,0-41.294,27.983,27.983,0,0,1,40.132,0,43.984,43.984,0,0,0,62.966,0,27.983,27.983,0,0,1,40.132,0,29.617,29.617,0,0,1,0,41.294,103.569,103.569,0,0,1-8.813,8l10.05,12.45a119.472,119.472,0,0,0,10.18-9.243A45.694,45.694,0,0,0,483.032,397.27ZM248,272a16,16,0,0,1-32,0V240a16.027,16.027,0,0,1,12.974-15.713L248,243.313Z"/><path d="M80,416H48a8,8,0,0,0-5.657,2.343l-24,24A8,8,0,0,0,16,448a32.036,32.036,0,0,0,32,32H80a32,32,0,0,0,0-64Zm0,48H48a16.027,16.027,0,0,1-15.713-12.974L51.313,432H80a16,16,0,0,1,0,32Z"/><path d="M180,440H156a28,28,0,0,0,0,56h24a28,28,0,0,0,0-56Zm0,40H156a12,12,0,0,1,0-24h24a12,12,0,0,1,0,24Z"/><path d="M241.372,86.225A32,32,0,1,0,286.627,40.97L273.373,27.717A39.736,39.736,0,0,0,245.088,16H224.4a8,8,0,0,0-8,8V44.687a39.736,39.736,0,0,0,11.716,28.284ZM232.4,32h12.686a23.84,23.84,0,0,1,16.971,7.03l13.254,13.253a16,16,0,0,1,0,22.628h0a16,16,0,0,1-22.627,0L239.431,61.656A23.838,23.838,0,0,1,232.4,44.687Z"/><path d="M156,104.957a27.916,27.916,0,0,0,19.8-8.187L192.77,79.8a28,28,0,1,0-39.6-39.6L136.2,57.171A27.987,27.987,0,0,0,156,104.957Zm-8.485-36.472,16.97-16.97a12,12,0,1,1,16.971,16.97l-16.971,16.97a12,12,0,0,1-16.97-16.97Z"/></g></svg>
