<svg width="40" height="40" viewBox="0 0 40 40" fill="none" xmlns="http://www.w3.org/2000/svg">
<rect width="40" height="40" fill="white"/>
<path d="M35.8333 40H4.16667C1.86833 40 0 38.13 0 35.8333V4.16667C0 1.87 1.86833 0 4.16667 0H35.8333C38.1317 0 40 1.87 40 4.16667V35.8333C40 38.13 38.1317 40 35.8333 40ZM4.16667 1.66667C2.78833 1.66667 1.66667 2.78833 1.66667 4.16667V35.8333C1.66667 37.2117 2.78833 38.3333 4.16667 38.3333H35.8333C37.2117 38.3333 38.3333 37.2117 38.3333 35.8333V4.16667C38.3333 2.78833 37.2117 1.66667 35.8333 1.66667H4.16667Z" fill="#4F5485" fill-opacity="0.98"/>
<path d="M27.4998 13.3334H12.4998C12.0398 13.3334 11.6665 12.96 11.6665 12.5C11.6665 12.04 12.0398 11.6667 12.4998 11.6667H27.4998C27.9598 11.6667 28.3332 12.04 28.3332 12.5C28.3332 12.96 27.9598 13.3334 27.4998 13.3334Z" fill="#4F5485" fill-opacity="0.98"/>
<path d="M27.4998 20.8333H12.4998C12.0398 20.8333 11.6665 20.46 11.6665 20C11.6665 19.54 12.0398 19.1667 12.4998 19.1667H27.4998C27.9598 19.1667 28.3332 19.54 28.3332 20C28.3332 20.46 27.9598 20.8333 27.4998 20.8333Z" fill="#4F5485" fill-opacity="0.98"/>
<path d="M27.4998 28.3333H12.4998C12.0398 28.3333 11.6665 27.96 11.6665 27.5C11.6665 27.04 12.0398 26.6667 12.4998 26.6667H27.4998C27.9598 26.6667 28.3332 27.04 28.3332 27.5C28.3332 27.96 27.9598 28.3333 27.4998 28.3333Z" fill="#4F5485" fill-opacity="0.98"/>
</svg>
