<svg width="20" height="20" viewBox="0 0 20 20" fill="none" xmlns="http://www.w3.org/2000/svg">
<path d="M16.874 17.0052C16.838 14.7007 16.1201 12.6054 14.8436 11.0882C13.5746 9.58039 11.8548 8.75 10.0004 8.75C8.14602 8.75 6.42617 9.58039 5.15715 11.0882C3.88191 12.6038 3.16445 14.6962 3.12695 16.9978C3.84805 17.359 6.83203 18.75 10.0004 18.75C13.4265 18.75 16.2053 17.3672 16.874 17.0052Z" fill="#FBB224"/>
<path d="M10 8.125C11.8985 8.125 13.4375 6.58598 13.4375 4.6875C13.4375 2.78902 11.8985 1.25 10 1.25C8.10152 1.25 6.5625 2.78902 6.5625 4.6875C6.5625 6.58598 8.10152 8.125 10 8.125Z" fill="#FBB224"/>
</svg>
