<svg width="30" height="30" viewBox="0 0 30 30" fill="none" xmlns="http://www.w3.org/2000/svg">
<path d="M25.9955 5.5C25.9967 5.36806 25.9456 5.241 25.8535 5.1465L20.8535 0.1465C20.7594 0.05375 20.6321 0.002625 20.5 0.0045V0H5.5C4.67156 0 4 0.671562 4 1.5V28.5C4 29.3284 4.67156 30 5.5 30H24.5C25.3284 30 26 29.3284 26 28.5V5.5H25.9955ZM21 1.707L24.293 5H21.5C21.2239 5 21 4.77612 21 4.5V1.707ZM25 28.5C25 28.7761 24.7761 29 24.5 29H5.5C5.22388 29 5 28.7761 5 28.5V1.5C5 1.22388 5.22388 1 5.5 1H20V4.5C20 5.32844 20.6716 6 21.5 6H25V28.5Z" fill="black"/>
<path d="M9 13.5C8.17156 13.5 7.5 14.1716 7.5 15C7.5 15.8284 8.17156 16.5 9 16.5C9.82844 16.5 10.5 15.8284 10.5 15C10.5 14.1716 9.82844 13.5 9 13.5ZM9 15.5C8.72388 15.5 8.5 15.2761 8.5 15C8.5 14.7239 8.72388 14.5 9 14.5C9.27612 14.5 9.5 14.7239 9.5 15C9.5 15.2761 9.27612 15.5 9 15.5Z" fill="black"/>
<path d="M22.5 14.5H12.5V15.5H22.5V14.5Z" fill="black"/>
<path d="M9 8.5C8.17156 8.5 7.5 9.17156 7.5 10C7.5 10.8284 8.17156 11.5 9 11.5C9.82844 11.5 10.5 10.8284 10.5 10C10.5 9.17156 9.82844 8.5 9 8.5ZM9 10.5C8.72388 10.5 8.5 10.2761 8.5 10C8.5 9.72388 8.72388 9.5 9 9.5C9.27612 9.5 9.5 9.72388 9.5 10C9.5 10.2761 9.27612 10.5 9 10.5Z" fill="black"/>
<path d="M22.5 9.5H12.5V10.5H22.5V9.5Z" fill="black"/>
<path d="M9 18.5C8.17156 18.5 7.5 19.1716 7.5 20C7.5 20.8284 8.17156 21.5 9 21.5C9.82844 21.5 10.5 20.8284 10.5 20C10.5 19.1716 9.82844 18.5 9 18.5ZM9 20.5C8.72388 20.5 8.5 20.2761 8.5 20C8.5 19.7239 8.72388 19.5 9 19.5C9.27612 19.5 9.5 19.7239 9.5 20C9.5 20.2761 9.27612 20.5 9 20.5Z" fill="black"/>
<path d="M22.5 19.5H12.5V20.5H22.5V19.5Z" fill="black"/>
<path d="M9 23.5C8.17156 23.5 7.5 24.1716 7.5 25C7.5 25.8284 8.17156 26.5 9 26.5C9.82844 26.5 10.5 25.8284 10.5 25C10.5 24.1716 9.82844 23.5 9 23.5ZM9 25.5C8.72388 25.5 8.5 25.2761 8.5 25C8.5 24.7239 8.72388 24.5 9 24.5C9.27612 24.5 9.5 24.7239 9.5 25C9.5 25.2761 9.27612 25.5 9 25.5Z" fill="black"/>
<path d="M22.5 24.5H12.5V25.5H22.5V24.5Z" fill="black"/>
</svg>
