<svg width="15" height="15" viewBox="0 0 15 15" fill="none" xmlns="http://www.w3.org/2000/svg">
<g clip-path="url(#clip0)">
<path d="M13.8444 9.4229C13.6381 9.4229 13.4708 9.59014 13.4708 9.79648V13.1134C13.4701 13.7322 12.9688 14.2336 12.3501 14.2342H1.86789C1.24915 14.2336 0.747885 13.7322 0.747155 13.1134V3.37839C0.747885 2.75979 1.24915 2.25838 1.86789 2.25765H5.18485C5.39119 2.25765 5.55843 2.09042 5.55843 1.88408C5.55843 1.67788 5.39119 1.5105 5.18485 1.5105H1.86789C0.836756 1.51167 0.00116743 2.34725 0 3.37839V13.1136C0.00116743 14.1447 0.836756 14.9803 1.86789 14.9815H12.3501C13.3812 14.9803 14.2168 14.1447 14.218 13.1136V9.79648C14.218 9.59014 14.0508 9.4229 13.8444 9.4229Z" fill="#D7654C"/>
<path d="M14.07 0.549285C13.4135 -0.107249 12.3491 -0.107249 11.6926 0.549285L5.0277 7.21415C4.98203 7.25982 4.94905 7.31644 4.93183 7.37861L4.05538 10.5428C4.01934 10.6725 4.05596 10.8114 4.15111 10.9067C4.2464 11.0019 4.38533 11.0385 4.51506 11.0026L7.67923 10.126C7.7414 10.1088 7.79802 10.0758 7.84369 10.0301L14.5084 3.36513C15.1639 2.70816 15.1639 1.64463 14.5084 0.987655L14.07 0.549285ZM5.8417 7.45697L11.2964 2.00215L13.0555 3.76132L7.60072 9.21614L5.8417 7.45697ZM5.4903 8.1621L6.89574 9.56769L4.95168 10.1063L5.4903 8.1621ZM13.9801 2.83687L13.584 3.23306L11.8246 1.47374L12.221 1.07755C12.5857 0.712871 13.177 0.712871 13.5416 1.07755L13.9801 1.51592C14.3442 1.88103 14.3442 2.4719 13.9801 2.83687Z" fill="#D7654C"/>
</g>
<defs>
<clipPath id="clip0">
<rect width="15" height="15" fill="white"/>
</clipPath>
</defs>
</svg>
