<svg width="30" height="30" viewBox="0 0 30 30" fill="none" xmlns="http://www.w3.org/2000/svg">
<path d="M15.7143 9.28577V16.4286L21.8286 20.0572L22.8571 18.3215L17.8572 15.3572V9.28577H15.7143Z" fill="#FBB224"/>
<path d="M17.1357 2.14282C10.0286 2.14282 4.28571 7.89994 4.28571 15H0L5.56426 20.5642L5.66424 20.7713L11.4286 15H7.14288C7.14288 9.47856 11.6215 4.99999 17.1429 4.99999C22.6643 4.99999 27.1428 9.47856 27.1428 15C27.1428 20.5214 22.6643 24.9999 17.1429 24.9999C14.3786 24.9999 11.8857 23.8714 10.0786 22.0642L8.05714 24.0857C10.3786 26.4142 13.5857 27.8571 17.1357 27.8571C24.2429 27.8571 30 22.1 30 15C30 7.89994 24.2429 2.14282 17.1357 2.14282Z" fill="#FBB224"/>
</svg>
