<svg width="30" height="30" viewBox="0 0 30 30" fill="none" xmlns="http://www.w3.org/2000/svg">
<g clip-path="url(#clip0)">
<path d="M18.7498 16.2501C18.0586 16.2501 17.4999 16.8102 17.4999 17.5V22.5002C17.4999 23.1889 16.9398 23.7501 16.2498 23.7501H12.4998V5.00024C12.4998 3.93275 11.8198 2.97901 10.7974 2.62401L10.4273 2.50019H16.2498C16.9398 2.50019 17.4999 3.0614 17.4999 3.75033V7.5003C17.4999 8.19014 18.0586 8.75021 18.7498 8.75021C19.441 8.75021 19.9997 8.19014 19.9997 7.5003V3.75033C19.9997 1.68286 18.3172 0.000366211 16.2498 0.000366211H2.81248C2.76487 0.000366211 2.72505 0.0216521 2.67881 0.0278318C2.61862 0.0227964 2.56117 0.000366211 2.50006 0.000366211C1.12129 0.000366211 7.62939e-06 1.12142 7.62939e-06 2.50019V25C7.62939e-06 26.0675 0.680008 27.0212 1.70241 27.3762L9.22499 29.8838C9.47997 29.9625 9.73356 30.0001 9.99998 30.0001C11.3787 30.0001 12.4998 28.8788 12.4998 27.5V26.2501H16.2498C18.3172 26.2501 19.9997 24.5676 19.9997 22.5002V17.5C19.9997 16.8102 19.441 16.2501 18.7498 16.2501Z" fill="#FBB224"/>
<path d="M29.6335 11.6165L24.6334 6.61659C24.2761 6.25908 23.7385 6.1515 23.2711 6.34513C22.8049 6.539 22.4998 6.99515 22.4998 7.50029V11.2503H17.4999C16.8099 11.2503 16.2498 11.8101 16.2498 12.5002C16.2498 13.1902 16.8099 13.7501 17.4999 13.7501H22.4998V17.5C22.4998 18.0052 22.8049 18.4613 23.2711 18.6552C23.7385 18.8488 24.2761 18.7412 24.6334 18.384L29.6335 13.3839C30.1222 12.8952 30.1222 12.1051 29.6335 11.6165Z" fill="#FBB224"/>
</g>
<defs>
<clipPath id="clip0">
<rect width="30" height="30" rx="5" fill="white"/>
</clipPath>
</defs>
</svg>
