<svg width="20" height="20" viewBox="0 0 20 20" fill="none" xmlns="http://www.w3.org/2000/svg">
<g clip-path="url(#clip0)">
<path d="M15.625 20H4.375C3.34167 20 2.5 19.1592 2.5 18.125V9.375C2.5 8.34083 3.34167 7.5 4.375 7.5H15.625C16.6583 7.5 17.5 8.34083 17.5 9.375V18.125C17.5 19.1592 16.6583 20 15.625 20ZM4.375 8.75C4.03083 8.75 3.75 9.03 3.75 9.375V18.125C3.75 18.47 4.03083 18.75 4.375 18.75H15.625C15.9692 18.75 16.25 18.47 16.25 18.125V9.375C16.25 9.03 15.9692 8.75 15.625 8.75H4.375Z" fill="#FBB224"/>
<path d="M14.375 8.74999C14.03 8.74999 13.75 8.46999 13.75 8.12499V4.99999C13.75 2.93249 12.0675 1.24999 10 1.24999C7.9325 1.24999 6.25 2.93249 6.25 4.99999V8.12499C6.25 8.46999 5.97 8.74999 5.625 8.74999C5.28 8.74999 5 8.46999 5 8.12499V4.99999C5 2.24249 7.2425 -5.06639e-06 10 -5.06639e-06C12.7575 -5.06639e-06 15 2.24249 15 4.99999V8.12499C15 8.46999 14.72 8.74999 14.375 8.74999Z" fill="#FBB224"/>
<path d="M9.99967 14.1667C9.08051 14.1667 8.33301 13.4192 8.33301 12.5C8.33301 11.5808 9.08051 10.8333 9.99967 10.8333C10.9188 10.8333 11.6663 11.5808 11.6663 12.5C11.6663 13.4192 10.9188 14.1667 9.99967 14.1667ZM9.99967 12.0833C9.77051 12.0833 9.58301 12.27 9.58301 12.5C9.58301 12.73 9.77051 12.9167 9.99967 12.9167C10.2288 12.9167 10.4163 12.73 10.4163 12.5C10.4163 12.27 10.2288 12.0833 9.99967 12.0833Z" fill="#FBB224"/>
<path d="M10 16.6667C9.655 16.6667 9.375 16.3867 9.375 16.0417V13.75C9.375 13.405 9.655 13.125 10 13.125C10.345 13.125 10.625 13.405 10.625 13.75V16.0417C10.625 16.3867 10.345 16.6667 10 16.6667Z" fill="#FBB224"/>
</g>
<defs>
<clipPath id="clip0">
<rect width="20" height="20" fill="white"/>
</clipPath>
</defs>
</svg>
